mtllib rooftile.mtl
o rooftile_inner
v 0.176777 1.176776 0.176777
v 1.000000 1.000000 0.000000
v 1.000000 1.176776 0.176777
v 1.000000 0.000000 1.000000
v 1.000000 0.353553 1.000000
v 0.000000 1.181196 -0.172357
v 0.000000 1.349133 -0.004419
v 1.000000 1.181196 -0.172357
v 1.000000 1.349133 -0.004419
v 0.000000 1.004419 0.004419
v 0.000000 1.172357 0.172357
v 1.000000 1.004419 0.004419
v 1.000000 1.172357 0.172357
v 0.000000 1.000000 1.000000
v 0.176777 1.176776 1.000000
v 0.000000 1.000000 0.000000
v -0.172357 1.181195 1.000000
v -0.004419 1.349133 1.000000
v -0.172357 1.181195 -0.000000
v -0.004419 1.349133 0.000000
v 0.004419 1.004419 1.000000
v 0.172357 1.172357 1.000000
v 0.004419 1.004419 -0.000000
v 0.172357 1.172357 0.000000
v 0.602252 0.132583 0.602252
v 1.000000 0.132583 0.602253
v 1.000000 0.265165 0.734835
v 0.734835 0.000000 0.734835
v 0.867417 0.132583 0.867418
v 1.000000 0.000000 0.734835
v 1.000000 0.132583 0.867418
v 0.102253 0.632582 0.102252
v 1.000000 0.632582 0.102253
v 1.000000 0.765165 0.234835
v 0.234835 0.500000 0.234835
v 0.367418 0.632582 0.367418
v 1.000000 0.500000 0.234835
v 1.000000 0.632582 0.367418
v 0.602252 0.132583 1.000000
v 0.734835 0.265165 1.000000
v 0.734835 0.265165 0.734835
v 0.734835 0.000000 1.000000
v 0.867418 0.132583 1.000000
v 0.102252 0.632582 1.000000
v 0.234835 0.765165 1.000000
v 0.234835 0.765165 0.234835
v 0.234835 0.500000 1.000000
v 0.367418 0.632582 1.000000
vt 1.000000 0.176747
vt 1.000000 1.000000
vt 0.176747 1.000000
vt 0.000000 0.176747
vt 0.823253 1.000000
vt 0.000000 1.000000
vt 0.000000 1.000000
vt 0.000000 0.000000
vt 1.000000 1.000000
vt 0.000000 1.000000
vt 1.000000 0.000000
vt 1.000000 1.000000
vt 1.000000 0.250000
vt 0.000000 0.000000
vt 1.000000 0.000000
vt 1.000000 0.000000
vt 0.171875 0.250000
vt 1.000000 0.000000
vt 0.000000 0.250000
vt 0.000000 0.000000
vt 0.828125 0.250000
vt 0.000000 0.000000
vt 0.250000 0.187500
vt 0.000000 0.000000
vt 0.375000 0.000000
vt 0.187500 0.187500
vt 0.000000 0.000000
vt 0.187500 0.000000
vt 1.000000 0.000000
vt 0.875000 0.187500
vt 0.750000 0.000000
vt 0.000000 0.187500
vt 0.250000 0.000000
vt 0.375000 0.187500
vt 1.000000 0.187500
vt 0.875000 0.000000
vt 1.000000 0.000000
vt 0.718750 0.187500
vt 0.000000 0.000000
vt 0.843750 0.000000
vt 0.187500 0.187500
vt 0.000000 0.000000
vt 0.187500 0.000000
vt 1.000000 0.000000
vt 0.406250 0.187500
vt 0.281250 0.000000
vt 0.000000 0.187500
vt 0.718750 0.000000
vt 0.843750 0.187500
vt 1.000000 0.187500
vt 0.406250 0.000000
vt 1.000000 0.000000
vt 1.000000 0.000000
vt 0.750000 0.187500
vt 0.625000 0.000000
vt 0.125000 0.187500
vt 0.000000 0.000000
vt 0.187500 0.000000
vt 0.000000 0.187500
vt 0.000000 0.000000
vt 1.000000 0.187500
vt 0.625000 0.187500
vt 0.125000 0.000000
vt 0.000000 0.000000
vt 1.000000 0.000000
vt 0.281250 0.187500
vt 0.156250 0.000000
vt 0.593750 0.187500
vt 0.000000 0.000000
vt 0.187500 0.000000
vt 0.000000 0.187500
vt 0.000000 0.000000
vt 1.000000 0.187500
vt 0.156250 0.187500
vt 0.593750 0.000000
vt 0.000000 0.000000
vt 0.000000 0.250000
vt 1.000000 0.250000
vt 1.000000 0.250000
vt 0.000000 0.250000
vt 0.000000 0.187500
vt 0.000000 0.187500
vt 1.000000 0.187500
vt 0.000000 0.187500
vt 0.000000 0.187500
vt 1.000000 0.187500
vt 1.000000 0.187500
vt 0.000000 0.187500
vt 0.187500 0.187500
vt 1.000000 0.000000
vt 1.000000 0.187500
vt 0.000000 0.187500
vt 0.187500 0.187500
vt 1.000000 0.000000
vt 1.000000 0.000000
vt 0.000000 0.250000
vt 0.000000 0.000000
vt 0.250000 0.250000
vt 0.000000 0.000000
vt 0.250000 0.000000
vt 0.000000 0.000000
vt 1.000000 0.250000
vt 0.000000 0.250000
vt 0.250000 0.000000
vt 0.000000 0.250000
vt 0.000000 0.000000
vt 1.000000 0.250000
vt 0.000000 0.250000
vt 0.000000 0.000000
vt 1.000000 0.250000
vt 0.000000 0.250000
vt 1.000000 0.000000
vt 0.000000 0.250000
vt 0.000000 0.000000
vt 0.250000 0.250000
vt 0.000000 0.000000
vt 0.250000 0.000000
vt 0.000000 0.000000
vt 1.000000 0.250000
vt 0.000000 0.250000
vt 0.250000 0.000000
vt 0.000000 0.250000
vt 0.000000 0.000000
vt 0.000000 0.250000
vt 1.000000 0.000000
vt 1.000000 0.250000
vt 0.000000 0.000000
vt 1.000000 0.250000
vt 0.000000 0.250000
vt 1.000000 0.250000
vt 1.000000 0.000000
vt 0.250000 0.250000
vt 1.000000 0.000000
vt 1.000000 0.000000
vt 1.000000 0.250000
vt 1.000000 0.000000
vt 0.250000 0.250000
vt 1.000000 0.000000
vn -0.0000 0.7071 0.7071
vn 0.7071 0.7071 -0.0000
vn 0.0000 -0.7071 -0.7071
vn -0.7071 -0.7071 -0.0000
vn 0.0000 0.7071 -0.7071
vn 1.0000 0.0000 0.0000
vn -0.7071 0.7071 0.0000
vn 0.0000 0.0000 1.0000
vn 0.0000 -0.7071 0.7071
vn 0.7071 -0.7071 0.0000
vn -1.0000 -0.0000 -0.0000
vn 0.0000 0.0000 -1.0000
usemtl RoofTile
f 5/1/1 3/2/1 1/3/1
f 5/4/2 1/5/2 15/6/2
usemtl PlanksInside
f 2/7/3 4/8/3 16/9/3
f 16/10/4 4/11/4 14/12/4
usemtl PlanksSides
f 1/13/5 2/14/5 16/15/5
f 2/16/6 5/17/6 4/8/6
f 14/18/7 1/19/7 16/20/7
f 5/21/8 14/22/8 4/11/8
f 41/23/5 26/24/5 25/25/5
f 27/26/6 30/27/6 26/28/6
f 30/29/9 29/30/9 28/31/9
f 26/32/3 28/33/3 25/34/3
f 27/35/1 29/36/1 31/37/1
f 46/38/5 33/39/5 32/40/5
f 34/41/6 37/42/6 33/43/6
f 37/44/9 36/45/9 35/46/9
f 33/47/3 35/48/3 32/49/3
f 34/50/1 36/51/1 38/52/1
f 39/53/7 41/54/7 25/55/7
f 29/56/10 42/57/10 28/33/10
f 42/58/8 40/59/8 39/60/8
f 28/31/4 39/61/4 25/62/4
f 29/63/2 40/59/2 43/64/2
f 44/65/7 46/66/7 32/67/7
f 36/68/10 47/69/10 35/48/10
f 47/70/8 45/71/8 44/72/8
f 35/46/4 44/73/4 32/74/4
f 36/75/2 45/71/2 48/76/2
f 1/13/5 3/77/5 2/14/5
f 2/16/6 3/78/6 5/17/6
f 14/18/7 15/79/7 1/19/7
f 5/21/8 15/80/8 14/22/8
f 41/23/5 27/81/5 26/24/5
f 27/26/6 31/82/6 30/27/6
f 30/29/9 31/83/9 29/30/9
f 26/32/3 30/27/3 28/33/3
f 27/35/1 41/54/1 29/36/1
f 46/38/5 34/84/5 33/39/5
f 34/41/6 38/85/6 37/42/6
f 37/44/9 38/86/9 36/45/9
f 33/47/3 37/42/3 35/48/3
f 34/50/1 46/66/1 36/51/1
f 39/53/7 40/87/7 41/54/7
f 29/56/10 43/88/10 42/57/10
f 42/58/8 43/89/8 40/59/8
f 28/31/4 42/90/4 39/61/4
f 29/63/2 41/23/2 40/59/2
f 44/65/7 45/91/7 46/66/7
f 36/68/10 48/92/10 47/69/10
f 47/70/8 48/93/8 45/71/8
f 35/46/4 47/94/4 44/73/4
f 36/75/2 46/38/2 45/71/2
usemtl PlanksEnd
f 6/95/5 9/96/5 8/97/5
f 9/98/6 12/99/6 8/100/6
f 13/101/9 10/102/9 12/103/9
f 10/104/11 7/105/11 6/106/11
f 12/99/3 6/107/3 8/108/3
f 9/109/1 11/110/1 13/111/1
f 17/112/7 20/113/7 19/114/7
f 20/115/12 23/116/12 19/117/12
f 24/118/10 21/119/10 23/120/10
f 21/121/8 18/122/8 17/123/8
f 19/124/4 21/125/4 17/126/4
f 20/127/2 22/128/2 24/129/2
f 6/95/5 7/130/5 9/96/5
f 9/98/6 13/111/6 12/99/6
f 13/101/9 11/131/9 10/102/9
f 10/104/11 11/132/11 7/105/11
f 12/99/3 10/133/3 6/107/3
f 9/109/1 7/134/1 11/110/1
f 17/112/7 18/135/7 20/113/7
f 20/115/12 24/129/12 23/116/12
f 24/118/10 22/136/10 21/119/10
f 21/121/8 22/137/8 18/122/8
f 19/124/4 23/116/4 21/125/4
f 20/127/2 18/138/2 22/128/2
