mtllib rooftile.mtl
o rooftile_filled_inner
v 0.176777 1.176776 0.176777
v 1.000000 1.000000 0.000000
v 1.000000 1.176776 0.176777
v 1.000000 0.000000 1.000000
v 1.000000 0.353553 1.000000
v 0.000000 1.181196 -0.172357
v 0.000000 1.349133 -0.004419
v 1.000000 1.181196 -0.172357
v 1.000000 1.349133 -0.004419
v 0.000000 1.004419 0.004419
v 0.000000 1.172357 0.172357
v 1.000000 1.004419 0.004419
v 1.000000 1.172357 0.172357
v 1.000000 0.000000 0.000000
v 0.000000 0.000000 0.000000
v 0.000000 1.000000 1.000000
v 0.176777 1.176776 1.000000
v 0.000000 1.000000 0.000000
v -0.172357 1.181195 1.000000
v -0.004419 1.349133 1.000000
v -0.172357 1.181195 -0.000000
v -0.004419 1.349133 0.000000
v 0.004419 1.004419 1.000000
v 0.172357 1.172357 1.000000
v 0.004419 1.004419 -0.000000
v 0.172357 1.172357 0.000000
v 0.000000 0.000000 1.000000
vt 1.000000 0.176747
vt 1.000000 1.000000
vt 0.176747 1.000000
vt 0.000000 0.176747
vt 0.823253 1.000000
vt 0.000000 1.000000
vt 1.000000 0.250000
vt 0.000000 0.000000
vt 1.000000 0.000000
vt 1.000000 0.000000
vt 0.171875 0.250000
vt 0.000000 0.000000
vt 0.000000 1.000000
vt 1.000000 0.000000
vt 1.000000 1.000000
vt 1.000000 1.000000
vt 1.000000 0.000000
vt 1.000000 0.000000
vt 0.000000 0.250000
vt 0.000000 0.000000
vt 0.828125 0.250000
vt -0.000000 -0.000000
vt 1.000000 -0.000000
vt 0.000000 1.000000
vt 1.000000 0.000000
vt 1.000000 1.000000
vt -0.000000 1.000000
vt -0.000000 0.000000
vt 0.000000 1.000000
vt 0.000000 0.250000
vt 1.000000 0.250000
vt 0.000000 0.000000
vt 1.000000 0.250000
vt 0.000000 0.250000
vt 0.000000 0.000000
vt 1.000000 1.000000
vt 1.000000 0.000000
vt 0.000000 0.250000
vt 0.000000 0.000000
vt 0.250000 0.250000
vt 0.000000 0.000000
vt 0.250000 0.000000
vt 0.000000 0.000000
vt 1.000000 0.250000
vt 0.000000 0.250000
vt 0.250000 0.000000
vt 0.000000 0.250000
vt 0.000000 0.000000
vt 1.000000 0.250000
vt 0.000000 0.250000
vt 0.000000 0.000000
vt 1.000000 0.250000
vt 0.000000 0.250000
vt 1.000000 0.000000
vt 0.000000 0.250000
vt 0.000000 0.000000
vt 0.250000 0.250000
vt 0.000000 0.000000
vt 0.250000 0.000000
vt 0.000000 0.000000
vt 1.000000 0.250000
vt 0.000000 0.250000
vt 0.250000 0.000000
vt 0.000000 0.250000
vt 0.000000 0.000000
vt 0.000000 0.250000
vt 1.000000 0.000000
vt 1.000000 0.250000
vt 0.000000 0.000000
vt 1.000000 0.250000
vt 0.000000 0.250000
vt 1.000000 0.250000
vt 1.000000 0.000000
vt 0.250000 0.250000
vt 1.000000 0.000000
vt 1.000000 0.000000
vt 1.000000 0.250000
vt 1.000000 0.000000
vt 0.250000 0.250000
vt 1.000000 0.000000
vn -0.0000 0.7071 0.7071
vn 0.7071 0.7071 -0.0000
vn 0.0000 0.7071 -0.7071
vn 1.0000 0.0000 0.0000
vn 0.0000 -0.0000 -1.0000
vn -0.7071 0.7071 0.0000
vn 0.0000 0.0000 1.0000
vn -1.0000 0.0000 -0.0000
vn 0.0000 -1.0000 0.0000
vn -0.0000 -0.7071 0.7071
vn -0.0000 -0.7071 -0.7071
vn 0.7071 -0.7071 -0.0000
vn -0.7071 -0.7071 0.0000
usemtl RoofTile
f 5/1/1 3/2/1 1/3/1
f 5/4/2 1/5/2 17/6/2
usemtl PlanksSides
f 1/7/3 2/8/3 18/9/3
f 2/10/4 5/11/4 4/12/4
f 2/13/5 15/14/5 18/15/5
f 2/16/4 4/12/4 14/17/4
f 16/18/6 1/19/6 18/20/6
f 5/21/7 16/22/7 4/23/7
f 18/24/8 27/25/8 16/26/8
f 4/23/7 16/27/7 27/28/7
f 27/25/9 14/29/9 4/12/9
f 1/7/3 3/30/3 2/8/3
f 2/10/4 3/31/4 5/11/4
f 2/13/5 14/32/5 15/14/5
f 16/18/6 17/33/6 1/19/6
f 5/21/7 17/34/7 16/22/7
f 18/24/8 15/35/8 27/25/8
f 27/25/9 15/36/9 14/29/9
usemtl PlanksEnd
f 6/37/3 9/38/3 8/39/3
f 9/40/4 12/41/4 8/42/4
f 13/43/10 10/44/10 12/45/10
f 10/46/8 7/47/8 6/48/8
f 12/41/11 6/49/11 8/50/11
f 9/51/1 11/52/1 13/53/1
f 19/54/6 22/55/6 21/56/6
f 22/57/5 25/58/5 21/59/5
f 26/60/12 23/61/12 25/62/12
f 23/63/7 20/64/7 19/65/7
f 21/66/13 23/67/13 19/68/13
f 22/69/2 24/70/2 26/71/2
f 6/37/3 7/72/3 9/38/3
f 9/40/4 13/53/4 12/41/4
f 13/43/10 11/73/10 10/44/10
f 10/46/8 11/74/8 7/47/8
f 12/41/11 10/75/11 6/49/11
f 9/51/1 7/76/1 11/52/1
f 19/54/6 20/77/6 22/55/6
f 22/57/5 26/71/5 25/58/5
f 26/60/12 24/78/12 23/61/12
f 23/63/7 24/79/7 20/64/7
f 21/66/13 25/58/13 23/67/13
f 22/69/2 20/80/2 24/70/2
