mtllib rooftile.mtl
o rooftile_outer
v 0.000000 0.000000 1.000000
v 1.000000 0.176777 1.176777
v 0.000000 1.000000 0.000000
v 1.000000 0.000000 1.000000
v 1.176777 0.176777 1.000000
v 1.000000 0.000000 -0.000000
v 1.176777 0.176777 -0.000000
v 0.000000 0.132583 0.602252
v 0.000000 0.265165 0.734835
v 0.602253 0.132583 0.602252
v 0.734835 0.265165 0.734835
v 0.000000 0.000000 0.734835
v 0.000000 0.132583 0.867417
v 0.734835 0.000000 0.734835
v 0.867418 0.132583 0.867418
v 0.000000 0.632582 0.102252
v 0.000000 0.765165 0.234835
v 0.102253 0.632582 0.102252
v 0.000000 0.500000 0.234835
v 0.000000 0.632582 0.367418
v 0.234835 0.500000 0.234835
v 0.367418 0.632582 0.367418
v 0.602252 0.132583 0.000000
v 0.734835 0.265165 0.000000
v 0.734835 0.000000 0.000000
v 0.867418 0.132583 0.000000
v 0.234835 0.765165 0.234835
v 0.102253 0.632582 0.000000
v 0.234835 0.765165 0.000000
v 0.234835 0.500000 0.000000
v 0.367418 0.632582 0.000000
v 1.000000 0.353553 1.000000
v 0.176777 1.176776 0.176777
v -0.000000 1.176776 0.176777
v 0.000000 0.176777 1.176777
v 0.176777 1.176776 0.000000
v 1.176777 0.176777 1.176777
vt 0.000000 0.000000
vt 1.000000 0.000000
vt 1.000000 0.176747
vt 0.176747 1.000000
vt 0.000000 1.000000
vt 0.000000 0.000000
vt 1.000000 0.000000
vt 0.000000 0.176747
vt 0.823253 1.000000
vt 1.000000 1.000000
vt 0.823253 0.000000
vt 1.000000 0.000000
vt 0.000000 0.000000
vt 0.176747 0.000000
vt 1.000000 0.000000
vt 1.000000 1.000000
vt 0.000000 0.000000
vt 0.000000 0.000000
vt 1.000000 0.000000
vt 0.000000 1.000000
vt 1.000000 0.250000
vt 0.000000 0.000000
vt 0.000000 0.250000
vt 0.000000 0.000000
vt 1.000000 0.250000
vt 0.000000 0.250000
vt 1.000000 0.250000
vt 1.000000 0.000000
vt 0.000000 0.250000
vt 0.187500 0.250000
vt 0.176747 0.250000
vt 0.000000 0.250000
vt 1.000000 0.000000
vt 1.000000 0.250000
vt 0.823253 0.250000
vt 1.000000 0.250000
vt 0.812500 0.250000
vt 1.000000 0.187500
vt 0.437500 0.000000
vt 1.000000 0.000000
vt 0.687500 0.000000
vt 0.000000 0.187500
vt 0.000000 0.000000
vt 0.187500 0.187500
vt 0.000000 0.000000
vt 0.187500 0.000000
vt 0.437500 0.187500
vt 1.000000 0.000000
vt 1.000000 0.187500
vt 0.687500 0.187500
vt 0.000000 0.000000
vt 0.812500 0.000000
vt 1.000000 0.187500
vt 0.906250 0.000000
vt 1.000000 0.000000
vt 0.218750 0.000000
vt 0.000000 0.187500
vt 0.000000 0.000000
vt 0.187500 0.000000
vt 0.000000 0.187500
vt 0.000000 0.000000
vt 0.906250 0.187500
vt 1.000000 0.000000
vt 1.000000 0.187500
vt 0.218750 0.187500
vt 0.000000 0.000000
vt 0.343750 0.000000
vt 0.562500 0.000000
vt 0.000000 0.187500
vt 0.000000 0.000000
vt 0.187500 0.187500
vt 0.000000 0.000000
vt 0.187500 0.000000
vt 1.000000 0.187500
vt 0.312500 0.000000
vt 1.000000 0.000000
vt 0.562500 0.187500
vt 0.000000 0.187500
vt 1.000000 0.000000
vt 0.312500 0.187500
vt 0.187500 0.000000
vt 0.093750 0.000000
vt 0.000000 0.187500
vt 0.000000 0.000000
vt 0.187500 0.187500
vt 0.000000 0.000000
vt 0.187500 0.000000
vt 1.000000 0.187500
vt 0.781250 0.000000
vt 1.000000 0.000000
vt 0.093750 0.187500
vt 0.000000 0.187500
vt 1.000000 0.000000
vt 0.781250 0.187500
vt 0.656250 0.000000
vt 0.000000 0.250000
vt 1.000000 0.250000
vt 0.000000 0.250000
vt 0.812500 0.187500
vt 0.000000 0.187500
vt 0.343750 0.187500
vt 0.187500 0.187500
vt 0.000000 0.187500
vt 0.187500 0.187500
vt 1.000000 0.187500
vt 0.000000 0.187500
vt 0.656250 0.187500
vt 1.000000 0.187500
vn 0.0000 0.7071 0.7071
vn 0.7071 0.7071 0.0000
vn 0.0000 -0.7071 -0.7071
vn -0.7071 -0.7071 0.0000
vn 0.0000 -0.7071 0.7071
vn -1.0000 -0.0000 -0.0000
vn -0.0000 -0.0000 -1.0000
vn 0.7071 -0.7071 -0.0000
vn -0.7071 0.7071 0.0000
vn 0.0000 0.7071 -0.7071
usemtl RoofTile
f 35/1/1 2/2/1 32/3/1
f 33/4/1 34/5/1 35/1/1
f 32/3/1 33/4/1 35/1/1
f 5/6/2 7/7/2 32/8/2
f 33/9/2 32/8/2 7/7/2
f 36/10/2 33/9/2 7/7/2
f 32/3/2 37/11/2 5/12/2
f 32/8/1 2/13/1 37/14/1
usemtl PlanksInside
f 1/15/3 3/16/3 4/17/3
f 6/18/4 4/19/4 3/20/4
usemtl PlanksSides
f 2/21/5 1/22/5 4/19/5
f 1/15/6 34/23/6 3/24/6
f 6/18/7 36/25/7 7/26/7
f 7/27/8 4/17/8 6/28/8
f 2/29/5 4/17/5 37/30/5
f 3/24/9 33/31/9 36/32/9
f 3/33/10 34/34/10 33/35/10
f 5/36/8 37/37/8 4/19/8
f 9/38/10 10/39/10 8/40/10
f 14/41/5 13/42/5 12/43/5
f 13/44/6 8/45/6 12/46/6
f 10/47/3 12/48/3 8/49/3
f 11/50/1 13/51/1 15/52/1
f 17/53/10 18/54/10 16/55/10
f 21/56/5 20/57/5 19/58/5
f 19/59/6 17/60/6 16/61/6
f 18/62/3 19/63/3 16/64/3
f 27/65/1 20/66/1 22/67/1
f 10/68/9 24/69/9 23/70/9
f 24/71/7 25/72/7 23/73/7
f 26/74/8 14/75/8 25/76/8
f 25/72/4 10/77/4 23/78/4
f 26/79/2 11/80/2 15/81/2
f 18/82/9 29/83/9 28/84/9
f 29/85/7 30/86/7 28/87/7
f 31/88/8 21/89/8 30/90/8
f 30/86/4 18/91/4 28/92/4
f 31/93/2 27/94/2 22/95/2
f 2/21/5 35/96/5 1/22/5
f 1/15/6 35/97/6 34/23/6
f 6/18/7 3/33/7 36/25/7
f 7/27/8 5/98/8 4/17/8
f 9/38/10 11/80/10 10/39/10
f 14/41/5 15/99/5 13/42/5
f 13/44/6 9/100/6 8/45/6
f 10/47/3 14/75/3 12/48/3
f 11/50/1 9/100/1 13/51/1
f 17/53/10 27/94/10 18/54/10
f 21/56/5 22/101/5 20/57/5
f 19/59/6 20/102/6 17/60/6
f 18/62/3 21/89/3 19/63/3
f 27/65/1 17/60/1 20/66/1
f 10/68/9 11/50/9 24/69/9
f 24/71/7 26/103/7 25/72/7
f 26/74/8 15/104/8 14/75/8
f 25/72/4 14/41/4 10/77/4
f 26/79/2 24/105/2 11/80/2
f 18/82/9 27/65/9 29/83/9
f 29/85/7 31/106/7 30/86/7
f 31/88/8 22/107/8 21/89/8
f 30/86/4 21/56/4 18/91/4
f 31/93/2 29/108/2 27/94/2
