mtllib plate_red_straight_rooftile.mtl
o rooftile_straight
v 0.000000 1.000000 0.000000
v 0.000000 1.176776 0.176777
v 1.000000 1.000000 0.000000
v 1.000000 1.176776 0.176777
v 0.000000 0.000000 1.000000
v 0.000000 0.176777 1.176777
v 1.000000 0.000000 1.000000
v 1.000000 0.176777 1.176777
v 0.000000 1.181196 -0.172357
v 0.000000 1.349133 -0.004419
v 1.000000 1.181196 -0.172357
v 1.000000 1.349133 -0.004419
v 0.000000 1.004419 0.004419
v 0.000000 1.172357 0.172357
v 1.000000 1.004419 0.004419
v 1.000000 1.172357 0.172357
v 0.000000 0.132583 0.602252
v 0.000000 0.265165 0.734835
v 1.000000 0.132583 0.602253
v 1.000000 0.265165 0.734835
v 0.000000 0.000000 0.734835
v 0.000000 0.132583 0.867417
v 1.000000 0.000000 0.734835
v 1.000000 0.132583 0.867418
v 0.000000 0.632582 0.102252
v 0.000000 0.765165 0.234835
v 1.000000 0.632582 0.102253
v 1.000000 0.765165 0.234835
v 0.000000 0.500000 0.234835
v 0.000000 0.632582 0.367418
v 1.000000 0.500000 0.234835
v 1.000000 0.632582 0.367418
vt 1.000000 1.000000
vt 0.000000 0.000000
vt 1.000000 0.000000
vt 0.000000 1.000000
vt 0.000000 0.000000
vt 1.000000 1.000000
vt 0.000000 1.000000
vt 1.000000 0.000000
vt 1.000000 0.250000
vt 0.000000 0.000000
vt 1.000000 0.000000
vt 1.000000 0.250000
vt 1.000000 0.000000
vt 1.000000 0.250000
vt 0.000000 0.000000
vt 1.000000 0.000000
vt 1.000000 0.250000
vt 0.000000 0.000000
vt 1.000000 0.187500
vt 0.000000 0.000000
vt 1.000000 0.000000
vt 0.187500 0.187500
vt 0.000000 0.000000
vt 0.187500 0.000000
vt 1.000000 0.187500
vt 0.000000 0.000000
vt 1.000000 0.000000
vt 0.187500 0.187500
vt 0.000000 0.000000
vt 0.187500 0.000000
vt 1.000000 0.187500
vt 0.000000 0.187500
vt 1.000000 0.187500
vt 0.000000 0.000000
vt 1.000000 0.000000
vt 1.000000 0.187500
vt 0.000000 0.000000
vt 1.000000 0.000000
vt 0.187500 0.187500
vt 0.000000 0.000000
vt 0.187500 0.000000
vt 1.000000 0.187500
vt 0.000000 0.000000
vt 1.000000 0.000000
vt 0.187500 0.000000
vt 0.000000 0.187500
vt 0.000000 0.000000
vt 1.000000 0.187500
vt 0.000000 0.187500
vt 1.000000 0.187500
vt 0.000000 0.000000
vt 1.000000 0.000000
vt 0.000000 0.250000
vt 0.000000 0.250000
vt 0.000000 0.250000
vt 0.000000 0.250000
vt 0.000000 0.187500
vt 0.000000 0.187500
vt 0.000000 0.187500
vt 0.000000 0.187500
vt 1.000000 0.000000
vt 0.000000 0.187500
vt 0.000000 0.187500
vt 0.000000 0.187500
vt 0.187500 0.187500
vt 1.000000 0.000000
vt 1.000000 0.000000
vt 0.000000 0.250000
vt 0.000000 0.000000
vt 0.250000 0.250000
vt 0.000000 0.000000
vt 0.250000 0.000000
vt 0.000000 0.000000
vt 1.000000 0.250000
vt 0.000000 0.250000
vt 0.250000 0.000000
vt 0.000000 0.250000
vt 0.000000 0.000000
vt 1.000000 0.250000
vt 0.000000 0.250000
vt 0.000000 0.000000
vt 1.000000 0.250000
vt 0.000000 0.250000
vt 1.000000 0.250000
vt 1.000000 0.000000
vt 0.250000 0.250000
vt 1.000000 0.000000
vt 1.000000 0.000000
vn 0.0000 0.7071 0.7071
vn 0.0000 -0.7071 -0.7071
vn 0.0000 0.7071 -0.7071
vn 1.0000 0.0000 0.0000
vn 0.0000 -0.7071 0.7071
vn -1.0000 0.0000 0.0000
usemtl RoofTile
s 1
f 4/1/1 6/2/1 8/3/1
f 4/1/1 2/4/1 6/2/1
usemtl PlanksInside
f 7/5/2 1/6/2 3/7/2
f 7/5/2 5/8/2 1/6/2
usemtl PlanksSides
f 2/9/3 3/10/3 1/11/3
f 4/12/4 7/5/4 3/13/4
f 8/14/5 5/15/5 7/16/5
f 6/17/6 1/18/6 5/8/6
f 18/19/3 19/20/3 17/21/3
f 20/22/4 23/23/4 19/24/4
f 24/25/5 21/26/5 23/27/5
f 22/28/6 17/29/6 21/30/6
f 23/23/2 17/31/2 19/32/2
f 20/33/1 22/34/1 24/35/1
f 26/36/3 27/37/3 25/38/3
f 28/39/4 31/40/4 27/41/4
f 32/42/5 29/43/5 31/44/5
f 29/45/6 26/46/6 25/47/6
f 31/40/2 25/48/2 27/49/2
f 28/50/1 30/51/1 32/52/1
f 2/9/3 4/53/3 3/10/3
f 4/12/4 8/54/4 7/5/4
f 8/14/5 6/55/5 5/15/5
f 6/17/6 2/56/6 1/18/6
f 18/19/3 20/57/3 19/20/3
f 20/22/4 24/58/4 23/23/4
f 24/25/5 22/59/5 21/26/5
f 22/28/6 18/60/6 17/29/6
f 23/23/2 21/61/2 17/31/2
f 20/33/1 18/60/1 22/34/1
f 26/36/3 28/62/3 27/37/3
f 28/39/4 32/63/4 31/40/4
f 32/42/5 30/64/5 29/43/5
f 29/45/6 30/65/6 26/46/6
f 31/40/2 29/66/2 25/48/2
f 28/50/1 26/46/1 30/51/1
usemtl PlanksEnd
f 9/67/3 12/68/3 11/69/3
f 12/70/4 15/71/4 11/72/4
f 16/73/5 13/74/5 15/75/5
f 13/76/6 10/77/6 9/78/6
f 15/71/2 9/79/2 11/80/2
f 12/81/1 14/82/1 16/83/1
f 9/67/3 10/84/3 12/68/3
f 12/70/4 16/83/4 15/71/4
f 16/73/5 14/85/5 13/74/5
f 13/76/6 14/86/6 10/77/6
f 15/71/2 13/87/2 9/79/2
f 12/81/1 10/88/1 14/82/1
